<?xml version="1.0" encoding="UTF-8"?>
<svg width="512" height="512" viewBox="0 0 512 512" xmlns="http://www.w3.org/2000/svg">
  <defs>
    <linearGradient id="docGradient" x1="0%" y1="0%" x2="100%" y2="100%">
      <stop offset="0%" style="stop-color:#6366f1"/>
      <stop offset="100%" style="stop-color:#a855f7"/>
    </linearGradient>
    <linearGradient id="textGradient" x1="0%" y1="0%" x2="100%" y2="0%">
      <stop offset="0%" style="stop-color:#f472b6"/>
      <stop offset="100%" style="stop-color:#fb923c"/>
    </linearGradient>
  </defs>
  
  <!-- Background Document Shape -->
  <path d="M128 64c-17.7 0-32 14.3-32 32v320c0 17.7 14.3 32 32 32h256c17.7 0 32-14.3 32-32V157.3c0-8.5-3.4-16.6-9.4-22.6l-61.3-61.3c-6-6-14.1-9.4-22.6-9.4H128z" fill="url(#docGradient)"/>
  
  <!-- Decorative Corner Fold -->
  <path d="M384 157.3V160h64l-64-64v61.3z" fill="#8b5cf6" opacity="0.8"/>
  
  <!-- Stylized Text Lines (Latin to Devanagari transformation) -->
  <g transform="translate(156, 220)" fill="url(#textGradient)">
    <!-- Latin Text Line -->
    <path d="M20 0h160c5.5 0 10 4.5 10 10s-4.5 10-10 10H20c-5.5 0-10-4.5-10-10s4.5-10 10-10z"/>
    
    <!-- Transitioning Middle Line -->
    <path d="M20 60h160c5.5 0 10 4.5 10 10s-4.5 10-10 10H20c-5.5 0-10-4.5-10-10s4.5-10 10-10z"
          transform="skewX(-10)"/>
    
    <!-- Devanagari-inspired Line -->
    <path d="M20 120c0 0 40-20 80 0s80 0 80 0c5.5 0 10 4.5 10 10s-4.5 10-10 10c0 0-40 20-80 0s-80 0-80 0c-5.5 0-10-4.5-10-10s4.5-10 10-10z"/>
  </g>
  
  <!-- Circular Transform Indicator -->
  <circle cx="256" cy="256" r="120" stroke="white" stroke-width="8" fill="none" opacity="0.2"/>
  <path d="M256 156v20m0 160v20m100-100h20m-220 0h20" stroke="white" stroke-width="4" opacity="0.3"/>
</svg>